<svg width="259" height="63" viewBox="0 0 259 63" fill="none" xmlns="http://www.w3.org/2000/svg"><path d="M73.952 31.56v-.06a12.693 12.693 0 01.86-4.871 12.412 12.412 0 012.647-4.135 12.007 12.007 0 014.01-2.735 11.727 11.727 0 014.732-.9 12.03 12.03 0 015.032.896 12.313 12.313 0 014.248 2.917l-2.676 3.187a9.43 9.43 0 00-3.023-2.207 9.199 9.199 0 00-3.616-.836c-4.512 0-7.831 3.837-7.831 8.624v.072c0 4.811 3.284 8.648 7.83 8.648a9.13 9.13 0 003.726-.84 9.365 9.365 0 003.089-2.3l2.677 2.791a12.298 12.298 0 01-4.343 3.28 11.973 11.973 0 01-5.288 1.05 11.653 11.653 0 01-4.677-.924 11.931 11.931 0 01-3.955-2.73 12.333 12.333 0 01-2.603-4.103 12.61 12.61 0 01-.84-4.824zm28.916 0v-.06c.09-3.319 1.431-6.471 3.741-8.79 2.31-2.318 5.406-3.62 8.632-3.63 3.227-.008 6.33 1.275 8.652 3.58 2.323 2.305 3.682 5.45 3.789 8.768v.072c-.091 3.319-1.434 6.47-3.745 8.787-2.31 2.317-5.407 3.617-8.633 3.625-3.227.008-6.329-1.277-8.651-3.583-2.321-2.306-3.679-5.45-3.785-8.769zm20.443 0v-.06a8.65 8.65 0 00-.533-3.28 8.461 8.461 0 00-1.726-2.81 8.174 8.174 0 00-2.648-1.905 7.983 7.983 0 00-3.158-.701 7.833 7.833 0 00-3.149.669 8.031 8.031 0 00-2.641 1.886 8.303 8.303 0 00-1.711 2.801 8.464 8.464 0 00-.505 3.268v.072a8.547 8.547 0 00.528 3.278 8.39 8.39 0 001.729 2.806 8.115 8.115 0 002.657 1.89c.999.44 2.075.67 3.162.674a7.788 7.788 0 003.145-.656 7.99 7.99 0 002.64-1.876 8.243 8.243 0 001.708-2.795c.38-1.04.551-2.15.502-3.261zm14.003-12.28h10.578a9.439 9.439 0 016.849 2.406 7.445 7.445 0 011.495 2.45c.337.91.496 1.88.469 2.854v.072a7.466 7.466 0 01-1.513 4.75 7.09 7.09 0 01-4.121 2.647l6.417 9.249h-4.956l-5.844-8.515h-5.178v8.515h-4.161l-.035-24.428zm10.262 12.112c2.992 0 4.886-1.612 4.886-4.09v-.06c0-2.622-1.824-4.053-4.909-4.053h-6.043v8.203h6.066zm17.217 8.756l2.513-3.067a10.856 10.856 0 007.492 3.211c2.583 0 4.208-1.203 4.208-3.079 0-1.744-.947-2.694-5.354-3.74-5.061-1.203-7.901-2.79-7.901-7.29v-.071c0-4.186 3.39-7.085 8.1-7.085a12.95 12.95 0 018.568 2.971l-2.245 3.248a10.6 10.6 0 00-6.44-2.514c-2.443 0-3.869 1.299-3.869 2.899v.072c0 1.888 1.087 2.718 5.669 3.836 5.014 1.203 7.598 3.103 7.598 7.157v.072c0 4.57-3.507 7.289-8.486 7.289-3.642 0-7.154-1.393-9.853-3.91zm35.766-21.036h3.869l10.437 24.596h-4.395l-2.407-5.893h-11.221l-2.443 5.893h-4.266l10.426-24.596zm5.972 14.89l-4.102-9.767-4.068 9.767h8.17zm17.217-14.722h4.161v24.428h-4.161V19.28zm15.078 0h10.578a9.439 9.439 0 016.849 2.406 7.533 7.533 0 011.964 5.268v.108a7.467 7.467 0 01-1.526 4.76 7.093 7.093 0 01-4.143 2.637l6.405 9.249h-4.956l-5.844-8.515h-5.224v8.515h-4.173l.07-24.428zM249.1 31.392c2.98 0 4.886-1.612 4.886-4.09v-.06c0-2.622-1.835-4.053-4.921-4.053h-6.066v8.203h6.101zM34.527 0s5.05 10.548 4.126 14.95c0 0 13.173 4.378 14.634 11.607 0 0 7.211-9.767-18.76-26.557zm-5.073 15.828a48.765 48.765 0 012.619 8.828l-7.446-2.898c.69-4.691-3.74-11.823-3.74-11.823l8.567 5.893zM16.13 23.093a56.51 56.51 0 012.279 7.577l-6.78-1.732c.702-4.69-3.6-10.368-3.6-10.368l8.1 4.523z" fill="#fff"/><path d="M30.88 11.811s30.203 21.83 32.19 30.297c1.508 6.375-2.864 12.256-2.864 12.256S57.868 37.742 0 62.988a32.228 32.228 0 006.623-11.4 32.9 32.9 0 001.559-13.184 32.35 32.35 0 00-2.84-10.68L18.9 35.131c0 .217 0 .433.058.662a49.599 49.599 0 01-1.168 16.273A39.072 39.072 0 0021.238 32.1a39.308 39.308 0 00-2.993-12.135l14.494 9.946c.058.494.093.987.14 1.492A49.448 49.448 0 0131.313 49.3a39.383 39.383 0 004.52-18.803A39.347 39.347 0 0030.88 11.81z" fill="#fff"/></svg>